<svg xmlns="http://www.w3.org/2000/svg" width="256" height="256" viewBox="0 0 100 100"><rect width="100" height="100" rx="20" fill="#6e9be7"></rect><path d="M47.98 28.67L47.98 28.67Q47.98 29.93 47.21 30.83Q46.45 31.73 45.45 32.18L45.45 32.18Q43.12 30.56 39.97 29.12Q36.81 27.68 31.78 27.68L31.78 27.68Q27.64 27.68 24.13 29.12Q20.62 30.56 18.01 33.35Q15.40 36.14 13.91 40.37Q12.43 44.60 12.43 50.09L12.43 50.09Q12.43 55.67 13.87 59.81Q15.31 63.95 17.87 66.74Q20.44 69.53 24.04 70.92Q27.64 72.32 32.05 72.32L32.05 72.32Q36.73 72.32 40.19 71.02Q43.66 69.71 45.99 67.91L45.99 67.91Q46.90 68.27 47.70 69.22Q48.52 70.16 48.52 71.42L48.52 71.42Q48.52 73.31 46.36 74.84L46.36 74.84Q44.29 76.28 40.69 77.41Q37.09 78.53 31.51 78.53L31.51 78.53Q25.84 78.53 20.98 76.73Q16.12 74.93 12.56 71.38Q9.01 67.82 6.94 62.51Q4.87 57.20 4.87 50.09L4.87 50.09Q4.87 42.98 6.98 37.63Q9.10 32.27 12.70 28.67Q16.30 25.07 21.11 23.27Q25.93 21.47 31.24 21.47L31.24 21.47Q34.93 21.47 38.03 22.10Q41.13 22.73 43.34 23.77Q45.55 24.80 46.76 26.11Q47.98 27.41 47.98 28.67ZM64.89 77.36L64.89 77.36Q63.18 77.36 62.06 76.28Q60.93 75.20 60.93 73.40L60.93 73.40L60.93 22.82Q61.38 22.64 62.33 22.41Q63.27 22.19 64.35 22.19L64.35 22.19Q68.31 22.19 68.31 25.52L68.31 25.52L68.31 71.06L94.14 71.06Q95.13 72.05 95.13 74.03L95.13 74.03Q95.13 75.56 94.32 76.46Q93.51 77.36 92.16 77.36L92.16 77.36L64.89 77.36Z" fill="#fff"></path></svg>